<?xml version="1.0" encoding="UTF-8"?>
<svg xmlns="http://www.w3.org/2000/svg" version="1.1" viewBox="0 0 256 256">
  <defs>
    <style>
      .cls-1 {
        fill: #fff;
      }

      .cls-2 {
        fill: #41cda5;
      }
    </style>
  </defs>
  <!-- Generator: Adobe Illustrator 28.6.0, SVG Export Plug-In . SVG Version: 1.2.0 Build 709)  -->
  <g>
    <g id="Lager_1">
      <rect class="cls-2" x="0" y="0" width="256" height="256"/>
      <path class="cls-1" d="M133.1,105.1c-8.1,0-16.6,3.3-21.5,8.2l-.8.8-1,1.1v-51.9h-16.4v120.6h16.4v-8.6l1,1.2.8.8c5,4.9,13.2,8.2,21.5,8.2,21.5,0,39.7-16.4,39.7-40.3s-18.2-40.3-39.7-40.3ZM132.2,170.9c-14.1,0-24-11.5-24-25.5s9.9-25.5,24-25.5,24,11.5,24,25.5-8.3,25.5-24,25.5Z"/>
    </g>
  </g>
</svg>