<?xml version="1.0" encoding="UTF-8"?>
<svg xmlns="http://www.w3.org/2000/svg" version="1.1" viewBox="0 0 256 256">
  <defs>
    <style>
      .cls-1 {
        fill: #fff;
      }

      .cls-2 {
        fill: gray;
      }
    </style>
  </defs>
  <!-- Generator: Adobe Illustrator 28.6.0, SVG Export Plug-In . SVG Version: 1.2.0 Build 709)  -->
  <g>
    <g id="Lager_1">
      <rect class="cls-1" y="0" width="256" height="256"/>
      <g id="Lager_1-2" data-name="Lager_1">
        <polygon class="cls-1" points="128.3 41.6 28 82.3 28 168 128 214.4 228 168 228 82.3 128.3 41.6"/>
        <path class="cls-2" d="M85.2,156.5c-.4,0-.9,0-1.3-.3l-40.8-18.9c-1.5-.7-2.2-2.5-1.5-4s2.5-2.2,4-1.5l40.8,18.9c1.5.7,2.2,2.5,1.5,4-.5,1.1-1.6,1.7-2.7,1.7h0Z"/>
        <path class="cls-2" d="M63,162.6c-.4,0-.9,0-1.3-.3l-18.5-8.6c-1.5-.7-2.2-2.5-1.5-4s2.5-2.2,4-1.5l18.5,8.6c1.5.7,2.2,2.5,1.5,4-.5,1.1-1.6,1.7-2.7,1.7h0Z"/>
        <path class="cls-2" d="M231,82.3h0v-.6h0c0-.3-.1-.5-.2-.7h0c-.1-.2-.2-.4-.4-.5h0c-.2-.2-.3-.3-.5-.4h0c-.1,0-.3-.2-.5-.2l-99.7-40.7c-.7-.3-1.5-.3-2.3,0L26.9,79.5c-.2,0-.3,0-.5.2h0c-.2,0-.4.3-.5.4h0c-.2.2-.3.4-.4.5h0c-.1.2-.2.4-.2.6h0v.7h0v85.7c0,1.2.7,2.2,1.7,2.7l100,46.4h0c.2,0,.4.1.5.2h1.4c.2,0,.4-.1.5-.2h0l100-46.4c1.1-.5,1.7-1.6,1.7-2.7v-85.7h0v.4ZM128.3,44.9l92.2,37.6-29.6,13.7-87.3-41.3,24.7-10h0ZM125,209.7l-94-43.6v-79.1l94,43.6v79.1h0ZM128,125.4l-92.5-42.9,37.4-15.1,89.2,42.2s-34.1,15.8-34.1,15.8ZM225,166.1l-94,43.6v-79.1l34.8-16.1v23.8c0,.9.6,1.7,1.5,1.9l1.4.3h.4c.5,0,1-.2,1.4-.6l4.2-4.4,7.1-1.1c.4,0,.8-.2,1-.5l3.7-3.5,4.3-.9c.9-.2,1.5-1,1.5-1.9v-25.6l32.5-15v79.1h.2Z"/>
      </g>
    </g>
  </g>
</svg>