<?xml version="1.0" encoding="UTF-8"?>
<svg id="Lager_1" data-name="Lager 1" xmlns="http://www.w3.org/2000/svg" version="1.1" viewBox="0 0 256 256">
  <defs>
    <style>
      .cls-1 {
        fill: #d50029;
        fill-rule: evenodd;
      }

      .cls-1, .cls-2 {
        stroke-width: 0px;
      }

      .cls-2 {
        fill: #fc0;
      }
    </style>
  </defs>
  <rect class="cls-2" width="256" height="256"/>
  <path class="cls-1" d="M0,137.5c0-.9,0-1.9,0-2.8h32.5l-2,2.8H0ZM.4,142.7c0-.9-.1-1.9-.2-2.8h28.5l-2,2.8H.4ZM1,148c-.1-.9-.2-1.9-.3-2.8h24.4l-2,2.8H1ZM255.4,145.2c0,.9-.2,1.9-.3,2.8h-31.4l2-2.8h29.7ZM255.8,139.9c0,1-.1,1.9-.2,2.8h-28.2l2-2.8h26.4ZM256,134.6c0,.9,0,1.9,0,2.8h-24.8l2-2.8h22.9ZM77.6,125.9c.8-1.1,1.5-2.2,2.1-3,1.2-1.6,1.2-2.6-1.2-2.6H31.1l8.7-12.3h50.1c12.7,0,16,10.5,12.4,15.5-2.6,3.7-5.7,8.1-5.7,8.1h-19.4c-3.7,0-2.6-1.6-2-2.4.6-.9,1.5-2.1,2.3-3.3ZM63.5,132.2c-.6.9-1.7,2.4,2,2.4h0c3.9,0,29,0,29,0-2.4,3.4-10.2,13.4-24.3,13.4H27.6l17.5-24.7h21.7c2.4,0,2.4.9,1.2,2.6-.5.8-1.3,1.8-2,2.8-.9,1.2-1.8,2.5-2.4,3.4ZM118.1,148h-25s9.5-13.4,9.5-13.4h25s-9.5,13.4-9.5,13.4ZM148,121.5l9.6-13.5h25l-16.7,23.6h-61.1l16.7-23.6h25l-9.6,13.5h11.1ZM154.2,148h-25s9.5-13.4,9.5-13.4h25l-9.5,13.4ZM217.1,108l-16.7,23.6h-26.5s16.7-23.6,16.7-23.6h26.4ZM169.1,138.5c.9-1.2,2.7-3.8,2.7-3.8h0s56.7,0,56.7,0l-9.5,13.4h-40.1c-10.2,0-13-5.1-9.9-9.5Z"/>
</svg>