<?xml version="1.0" encoding="UTF-8"?>
<svg id="Lager_1" data-name="Lager 1" xmlns="http://www.w3.org/2000/svg" version="1.1" viewBox="0 0 256 256">
  <defs>
    <style>
      .cls-1 {
        fill: #ec0016;
      }

      .cls-1, .cls-2 {
        stroke-width: 0px;
      }

      .cls-2 {
        fill: #fff;
      }
    </style>
  </defs>
  <rect class="cls-2" width="256" height="256"/>
  <g>
    <path class="cls-1" d="M213.4,177.8c.1,3-2.3,5.6-5.3,5.7,0,0-.1,0-.2,0H48.1c-3.1,0-5.5-2.5-5.5-5.6,0,0,0,0,0-.1v-99.9c-.1-3,2.2-5.6,5.3-5.7,0,0,.1,0,.2,0h159.8c3,0,5.5,2.5,5.5,5.5,0,0,0,.1,0,.2v99.9ZM207.9,58H48.1c-11,0-20,8.8-20.1,19.8,0,0,0,0,0,.1v99.9c0,11.1,9,20.1,20.1,20.2h159.8c11.1,0,20.1-9.1,20.1-20.2v-99.9c0-11-8.9-19.9-19.9-19.9,0,0,0,0-.1,0"/>
    <path class="cls-1" d="M103.8,129.5c0-18.4-1.9-32.9-21.8-32.9h-4.5v62.4h7.8c11.6,0,18.4-9.3,18.4-29.5M89.1,173.9h-33.7v-91.7h33.7c23.7,0,36.8,14.8,36.8,45.4,0,26.5-8.8,46-36.8,46.3M166.4,159h-9v-23.5h9.7c11.5,0,14.2,6.7,14.2,11.8,0,11.8-11.4,11.8-14.8,11.8M157.4,96.3h6.9c9.9,0,13.8,3.5,13.8,11.1,0,6.1-4.8,11-10.9,11.1-.4,0-.8,0-1.2,0h-8.7v-22.1ZM184.1,125.9c9.4-2.8,15.9-11.5,16-21.3,0-1.9-.4-22.4-26.2-22.4h-38.3v91.6h32.4c8.5,0,35.3,0,35.3-25.8,0-6.4-2.5-18.5-19.1-22.1"/>
  </g>
</svg>