<?xml version="1.0" encoding="UTF-8"?>
<svg id="Lager_1" data-name="Lager 1" xmlns="http://www.w3.org/2000/svg" version="1.1" viewBox="0 0 256 256">
  <defs>
    <style>
      .cls-1 {
        fill: #300;
      }

      .cls-1, .cls-2, .cls-3 {
        stroke-width: 0px;
      }

      .cls-2 {
        fill: #ffbe00;
      }

      .cls-3 {
        fill: #fff;
      }
    </style>
  </defs>
  <rect class="cls-3" width="256" height="256"/>
  <g>
    <path class="cls-1" d="M71.9,190c-13.5-11-20.6-27-20.6-45.9V53.8c21.3-11.3,47.1-17,76.7-17s55.4,5.7,76.7,17v90.3c0,19-7.1,34.9-20.6,45.9-12.3,10.1-51.6,27.3-56.1,29.3-4.5-2-43.7-19.2-56.1-29.3Z"/>
    <path class="cls-2" d="M200.5,52.7c-9.9-.9-20.1-1.5-30.5-1.5-38.7,0-80.2,8.3-114.5,39.8v53.8c0,17.5,6.5,32.1,18.8,42.2,10.9,8.8,44.3,24,53.7,28.1,9.3-4.1,42.6-19,53.7-28.1,12.4-10.2,18.8-24.5,18.8-42.2V52.7M62.6,139.1v-43.7h13.9v44.3c0,3.9,1,9.8,7.3,9.8,2.3,0,4.6-.5,6.6-1.7v-52.3h13.9v60.3c-6.3,3.9-13.6,5.9-20.9,5.6-13.7,0-20.7-7.5-20.7-22.2M125.3,189.5h-13.9v-90.5c5.6-3.5,12.1-5.2,18.7-4.9,16.6,0,25.7,12.6,25.7,32.8s-8.8,34.2-24.3,34.2c-2.1,0-4.2-.2-6.3-.8v29.2ZM125.3,148.9c1.4.5,3,.8,4.5.8,8,0,11.8-7.3,11.8-22.5s-3.3-22-11.4-22c-1.7,0-3.4.3-4.9,1v42.7ZM158.9,112.1c.2-10.1,8.5-18.2,18.6-18.1,5.4-.3,10.8,1.3,15.2,4.5v12.1c-3.3-3.4-7.7-5.5-12.4-5.7-3.9,0-8,1.7-8.2,6.6-.1,5.1,4,7.1,9.1,10.1,11.6,6.8,13.8,12.9,13.6,21-.3,8.9-6.4,18.6-20.1,18.6-5.4,0-10.6-1.5-15.3-4.3v-12.8c3.7,3.3,8.3,5.3,13.3,5.7,5.1,0,8.4-2.9,8.3-7.7-.1-4.4-2.6-6.7-8.7-10.3-11.5-6.7-13.5-12.2-13.5-19.6M69.6,192.5c-14.1-11.5-21.5-28-21.5-47.8V50.7c22.2-11.8,49-17.7,79.8-17.7s57.7,6,79.8,17.7v94c0,19.8-7.4,36.3-21.5,47.8-12.8,10.5-53.7,28.4-58.4,30.5-4.7-2-45.5-20-58.4-30.5ZM179,212.2v8.2h1.5v-3.4h.2c.1.2,2.2,3.4,2.2,3.4h1.8s-2.2-3.3-2.5-3.6c1.1-.2,1.8-1.1,1.8-2.2,0-1.3-1-2.4-2.3-2.4-.1,0-.3,0-.4,0h-2.3ZM181.1,213.4c1.3,0,1.4.6,1.4,1.1,0,.8-.3,1.3-1.9,1.3h-.2v-2.4h.7ZM186.9,216.3c0,3-2.5,5.5-5.5,5.5-3,0-5.5-2.5-5.5-5.5,0-3,2.5-5.5,5.5-5.5,3,0,5.5,2.5,5.5,5.5,0,0,0,0,0,0M181.3,209.6c-3.7,0-6.7,3-6.7,6.7,0,3.7,3,6.7,6.7,6.7,3.7,0,6.7-3,6.7-6.7,0-3.7-3-6.7-6.7-6.7"/>
  </g>
</svg>