<?xml version="1.0" encoding="UTF-8"?>
<svg id="Lager_1" data-name="Lager 1" xmlns="http://www.w3.org/2000/svg" version="1.1" viewBox="0 0 256 256">
  <defs>
    <style>
      .cls-1 {
        fill: #1c1c1c;
      }

      .cls-1, .cls-2, .cls-3, .cls-4 {
        stroke-width: 0px;
      }

      .cls-2 {
        fill: #0070ad;
      }

      .cls-3 {
        fill: #004770;
      }

      .cls-4 {
        fill: #fff;
      }
    </style>
  </defs>
  <rect class="cls-4" width="256" height="256"/>
  <g id="g12">
    <g id="g14">
      <g id="g16">
        <g id="g22">
          <path id="path24" class="cls-1" d="M121.5,171.5c0,0,0,0,0-.1,0,0,0,0,0,.1"/>
        </g>
        <g id="g26">
          <path id="path28" class="cls-1" d="M121.4,171.9c0,0,0-.1,0-.2,0,0,0,.1,0,.2"/>
        </g>
        <g id="g30">
          <path id="path32" class="cls-1" d="M121.4,171.7c0,0,0-.1,0-.2,0,0,0,.1,0,.2"/>
        </g>
        <g id="g34">
          <path id="path36" class="cls-1" d="M121.5,171.4s0,0,0,0"/>
        </g>
        <g id="g38">
          <path id="path40" class="cls-1" d="M121.3,172.3s0,0,0,.1c0,0,0,0,0-.1"/>
        </g>
        <g id="g42">
          <path id="path44" class="cls-1" d="M121.3,172.4c0,0,0,0,0,0"/>
        </g>
        <g id="g46">
          <path id="path48" class="cls-1" d="M121.3,172.1c0,0,0,.1,0,.2,0,0,0,0,0-.2"/>
        </g>
        <g id="g50">
          <path id="path52" class="cls-1" d="M121.4,171.9c0,0,0,.2,0,.2,0,0,0-.1,0-.2"/>
        </g>
        <g id="g54">
          <path id="path56" class="cls-3" d="M207.9,48.6h-57.1c-7.6,0-14,5.2-15.6,12.5l-15.7,70.4-19.9-33c-.8-1.4-1.9-2.6-3.1-3.7-3-3.3-7.3-5.4-11.9-5.4s-1.7,0-2.5.2c-6.5,1-11.6,5.9-13.1,12.3l-19.7,86.6c-3.2,14.3,10,19.7,13.3,20.4,1.2.3,2.3.4,3.4.4h.2c7.5,0,13.9-5.1,15.6-12.5l10.7-47.2,20,33.2c4.7,7.5,10.4,9,15,9s1.7,0,2.6-.2c6.5-1.1,11.6-5.9,13.1-12.3l21.8-97.5h44.2c8.8,0,16-7.2,16-16,0-4.7-4.2-17.3-17.3-17.3"/>
        </g>
        <g id="g58">
          <path id="path60" class="cls-2" d="M64.9,206.9c6.7,0,12.8-4.6,14.4-11.5l11.6-50.9,22.7,37.8c3.1,5.2,9,7.9,15,7,6-1,10.7-5.5,12-11.4l22-98.5h45.2c8.1,0,14.8-6.6,14.8-14.8s-6.6-14.8-14.8-14.8h-57.1c-6.9,0-12.9,4.8-14.4,11.5l-16.5,74.1-22.6-37.6c-3.1-5.2-9-7.9-15-7-5.9,1-10.7,5.4-12.1,11.3l-19.7,86.6c-1.8,7.9,3.2,15.9,11.1,17.7,1.1.2,2,.4,3.1.4h.2Z"/>
        </g>
        <g id="g86">
          <path id="path88" class="cls-4" d="M207.9,59.2c-2.3,0-4.3,1.4-5.1,3.6h-52c-.8,0-1.6.6-1.8,1.4l-23.6,105.6-39.3-65.3c-.4-.6-1.1-1-1.8-.9-.7.1-1.3.7-1.5,1.4l-18.6,81.6c-2.3.3-4.2,1.9-4.7,4.2-.3,1.4,0,2.9.7,4.1.8,1.2,2,2.1,3.4,2.4.4,0,.8.1,1.2.1,2.5,0,4.7-1.8,5.3-4.2.5-2.2-.5-4.5-2.4-5.8l17.6-77.2,39.3,65.3c.4.6,1.1,1,1.9.9.7-.1,1.3-.7,1.5-1.4l24.3-108.6h50.5c.8,2.2,2.8,3.6,5.1,3.6s5.4-2.4,5.4-5.4-2.4-5.4-5.4-5.4"/>
        </g>
      </g>
    </g>
  </g>
</svg>