<?xml version="1.0" encoding="UTF-8"?>
<svg xmlns="http://www.w3.org/2000/svg" version="1.1" viewBox="0 0 256 256">
  <defs>
    <style>
      .cls-1 {
        fill: #fff;
      }

      .cls-2 {
        fill: gray;
      }
    </style>
  </defs>
  <!-- Generator: Adobe Illustrator 28.6.0, SVG Export Plug-In . SVG Version: 1.2.0 Build 709)  -->
  <g>
    <g id="Lager_1">
      <rect class="cls-1" y="0" width="256" height="256"/>
      <g id="Lager_1-2" data-name="Lager_1">
        <path class="cls-2" d="M128,33h0c-42,0-68.9,44.6-49.5,81.8l49.5,94.4,49.5-94.4c19.5-37.2-7.5-81.8-49.5-81.8ZM128,121.2c-18.1,0-32.8-14.6-32.8-32.6s14.7-32.6,32.8-32.6,32.8,14.6,32.8,32.6-14.7,32.6-32.8,32.6Z"/>
        <path class="cls-2" d="M128,228.2c-10.6,0-20.6-1.5-28.2-4.3-11.9-4.3-14.4-10.3-14.4-14.6s2.5-10.2,14.4-14.6c2.7-1,5.7.4,6.7,3.1,1,2.7-.4,5.7-3.1,6.7-5.9,2.2-7.4,4.3-7.5,4.7,0,.4,1.6,2.5,7.5,4.7,6.4,2.3,15.4,3.7,24.6,3.7s18.2-1.3,24.6-3.7c5.9-2.2,7.4-4.3,7.5-4.7,0-.4-1.6-2.5-7.5-4.7-2.7-1-4.1-4-3.1-6.7s4-4.1,6.7-3.1c11.9,4.3,14.4,10.3,14.4,14.6s-2.5,10.2-14.4,14.6c-7.6,2.8-17.6,4.3-28.2,4.3Z"/>
      </g>
    </g>
  </g>
</svg>