<?xml version="1.0" encoding="UTF-8"?>
<svg id="Lager_1" data-name="Lager 1" xmlns="http://www.w3.org/2000/svg" version="1.1" viewBox="0 0 256 256">
  <defs>
    <style>
      .cls-1 {
        fill: #fff;
        fill-rule: evenodd;
      }

      .cls-1, .cls-2 {
        stroke-width: 0px;
      }

      .cls-2 {
        fill: #01a0d7;
      }
    </style>
  </defs>
  <rect class="cls-2" width="256" height="256"/>
  <path class="cls-1" d="M70.7,92.5s7.3-10,23.3-10c23.4,0,36.6,18.1,36.6,40.9,0,22.1-15.1,40.4-38.7,40.4s-21.2-7.2-21.2-7.2v26.8h-28.1v-98.4h28.1v7.5ZM69.9,123.4c0,9,6.3,15.7,15.6,15.7s15.4-6.7,15.4-15.7-6.2-16.1-15.4-16.1-15.6,6.5-15.6,16.1ZM162.8,92.5s5.9-10,22.3-10,28.2,10.9,28.2,32v46.9h-28.4v-37c0-9.1-1.3-16.3-9.9-16.3s-12.3,4.4-12.3,14.1v39.2h-28.1v-76.5h28.1v7.5Z"/>
</svg>