<?xml version="1.0" encoding="UTF-8"?>
<svg id="Lager_1" data-name="Lager 1" xmlns="http://www.w3.org/2000/svg" version="1.1" viewBox="0 0 256 256">
  <defs>
    <style>
      .cls-1 {
        fill: #ff5900;
      }

      .cls-1, .cls-2, .cls-3 {
        stroke-width: 0px;
      }

      .cls-2 {
        fill: #2a007c;
      }

      .cls-3 {
        fill: #fff;
      }
    </style>
  </defs>
  <rect class="cls-2" width="256" height="256"/>
  <g id="g6">
    <polygon id="polygon10" class="cls-1" points="194.5 119 202.8 128.1 210.8 119 227.8 119 211.2 137.6 228 156.5 210.3 156.5 202.1 147.3 194 156.5 176.9 156.5 193.6 137.7 176.9 119 194.5 119"/>
    <polygon id="polygon12" class="cls-1" points="176.9 119 176.9 131.6 158 131.6 158 143.3 176.9 143.3 176.9 156.5 144.1 156.5 144.1 97.4 176.9 97.4 176.9 110.5 158 110.5 158 119 176.9 119"/>
    <path id="path14" class="cls-3" d="M130.3,97.4v24.2h-.2c-3.1-3.5-6.9-4.7-11.3-4.7-9.1,0-16,6.2-18.4,14.4-2.7-9-9.8-14.5-20.3-14.5s-15.3,3.8-18.8,10.1v-7.7h-17.6v-8.4h19.2v-13.2H28v59.1h15.7v-24.9h15.7c-.5,1.8-.7,3.8-.7,5.8,0,12.3,9.4,21,21.4,21s16.8-4.7,20.3-13.4h-13.5c-1.8,2.6-3.2,3.4-6.8,3.4s-7.9-3.7-7.9-8h27.4c1.2,9.8,8.8,18.2,19.3,18.2s8.7-2.2,11.2-6h.2v3.8h13.8v-59.1h-13.8ZM72.7,131.8c.9-3.8,3.8-6.2,7.4-6.2s6.8,2.4,7.5,6.2c.3,0-14.9,0-14.9,0ZM121.9,147.5c-5.1,0-8.3-4.8-8.3-9.7s2.8-10.4,8.3-10.4,8,5.1,8,10.4-2.4,9.7-8,9.7Z"/>
  </g>
</svg>