<?xml version="1.0" encoding="UTF-8"?>
<svg id="Lager_1" data-name="Lager 1" xmlns="http://www.w3.org/2000/svg" version="1.1" viewBox="0 0 256 256">
  <defs>
    <style>
      .cls-1 {
        fill: #fff;
        fill-rule: evenodd;
      }

      .cls-1, .cls-2 {
        stroke-width: 0px;
      }

      .cls-2 {
        fill: #ff3e3e;
      }
    </style>
  </defs>
  <rect class="cls-2" width="256" height="256"/>
  <path class="cls-1" d="M143,200c11.7,0,21.7-3.9,29.8-11.7,7.4-6.9,11.2-15.2,11.2-25.1s-3.7-18.2-11.2-25.1l-1.7-1.7-55.1,54.4c7.6,6.1,16.6,9.2,27,9.2ZM162.8,127.9l1.5-1.4,12.2-12c4.9-6.1,7.4-13.3,7.4-21.5s-3.3-17.6-10-24.3l-92.1,90.7,24.9,23.6,55.9-55.1ZM105.6,73l-57.6,56.3,24.7,24.2,56.1-57-23.1-23.5ZM162.7,61.4c-6.2-3.6-13.2-5.4-21-5.4s-18.5,2.9-25.7,8.6l21.7,21,24.9-24.2Z"/>
</svg>